<svg xmlns="http://www.w3.org/2000/svg" viewBox="0 0 32 32"><path d="M 22.005859 2.9082031 L 21.601562 3.0820312 L 15 5.9433594 L 15 14.029297 L 21.974609 17.931641 L 29 14.417969 L 29 6.0175781 L 22.005859 2.9082031 z M 13 3.6289062 C 8.07 5.3289063 6.6791719 9.9524688 6.4511719 10.855469 L 3.7792969 16.207031 C 3.4722969 16.921031 3.4658125 17.667859 3.7578125 18.255859 C 4.0108125 18.765859 4.472375 19.126 4.984375 19.25 C 5.266375 19.344 5.659 19.460594 6 19.558594 L 6 21 C 6 23.57 8.43 26 11 26 L 11 29 L 13 29 L 13 24 L 11 24 C 9.542 24 8 22.458 8 21 L 8 18.037109 L 7.2636719 17.835938 C 7.2596719 17.834937 6.1947813 17.544141 5.5507812 17.369141 C 5.5417812 17.344141 5.52775 17.207828 5.59375 17.048828 L 8.2929688 11.646484 L 8.3789062 11.394531 C 8.4209062 11.191531 9.243 7.4539688 13 5.7929688 L 13 3.6289062 z M 21.996094 5.0917969 L 25.636719 6.7109375 L 22.005859 8.484375 L 18.365234 6.6640625 L 21.996094 5.0917969 z M 17 8.21875 L 21 10.21875 L 21 15.09375 L 17 12.857422 L 17 8.21875 z M 27 8.2675781 L 27 13.181641 L 23 15.181641 L 23 10.222656 L 27 8.2675781 z M 27.302734 17.503906 L 24.523438 18.892578 C 23.770437 20.511578 23 22.186563 23 24.101562 L 23 29 L 25 29 L 25 24.101562 C 25 22.608563 25.660375 21.189547 26.359375 19.685547 C 26.689375 18.975547 27.022734 18.254906 27.302734 17.503906 z"/></svg>