<svg xmlns="http://www.w3.org/2000/svg" viewBox="0 0 30 30"><path d="M 13.011719 0.9921875 C 12.461719 0.9921875 12.011719 1.4421875 12.011719 1.9921875 L 12.011719 13.242188 L 17.011719 15.332031 L 17.011719 1.9921875 C 17.011719 1.4421875 16.561719 0.9921875 16.011719 0.9921875 L 13.011719 0.9921875 z M 6.0117188 4.9921875 C 5.4617188 4.9921875 5.0117187 5.4421875 5.0117188 5.9921875 L 5.0117188 13.132812 L 7.3320312 12.472656 C 8.2120313 12.222656 9.1417188 12.222891 10.011719 12.462891 L 10.011719 5.9921875 C 10.011719 5.4421875 9.5617188 4.9921875 9.0117188 4.9921875 L 6.0117188 4.9921875 z M 20.011719 4.9921875 C 19.461719 4.9921875 19.011719 5.4421875 19.011719 5.9921875 L 19.011719 16.162109 L 19.701172 16.453125 C 20.571172 16.813125 21.351719 17.332187 22.011719 17.992188 L 24.011719 17.132812 L 24.011719 5.9921875 C 24.011719 5.4421875 23.561719 4.9921875 23.011719 4.9921875 L 20.011719 4.9921875 z M 9.0019531 14.003906 C 8.6219531 14.003906 8.2428125 14.072891 7.8828125 14.212891 L 5.0117188 15.263672 L 3.0019531 16.003906 L 3.0019531 24.003906 L 7.2226562 22.162109 C 7.7226562 21.952109 8.28125 21.942344 8.78125 22.152344 L 17.851562 25.853516 C 18.051562 25.953516 18.271953 26.003906 18.501953 26.003906 C 18.761953 26.003906 19.012187 25.932734 19.242188 25.802734 L 28.232422 20.8125 C 28.702422 20.5425 29.001953 20.043906 29.001953 19.503906 C 29.001953 18.673906 28.331953 18.003906 27.501953 18.003906 C 27.281953 18.003906 27.061328 18.052578 26.861328 18.142578 L 24.011719 19.332031 L 20.001953 21.003906 L 19.011719 21.003906 L 19.011719 20.902344 C 19.591719 20.702344 20.001953 20.153906 20.001953 19.503906 C 20.001953 18.873906 19.601719 18.30375 19.011719 18.09375 C 19.001719 18.08375 18.982891 18.082266 18.962891 18.072266 L 17.011719 17.222656 L 12.011719 15.042969 L 10.271484 14.283203 L 10.261719 14.283203 C 10.181719 14.243203 10.101719 14.213594 10.011719 14.183594 C 9.6917187 14.063594 9.3419531 14.003906 9.0019531 14.003906 z"/></svg>