<svg xmlns="http://www.w3.org/2000/svg" viewBox="0 0 24 24"><path d="M18.4,14H11V6.6L15.6,2H23v7.4L18.4,14z M13,12h4.6L21,8.6V4h-4.6L13,7.4V12z"/><path d="M15.5,16c-0.3,0.8-0.5,1.9-0.5,3.2V20h-5v-3H6v-4.3l-1.2-0.5l-0.2-0.1l1.2-1.9L6,9.8L6,9.3c0.3-2.6,2.1-4.6,4.5-5.1L12.7,2 c-0.2,0-0.5,0-0.7,0C7.9,2,4.5,5.1,4,9.1l-1.9,3c-0.3,0.5-0.1,1.1,0.4,1.3L4,14v3c0,1.1,0.9,2,2,2h2v3h9v-2.8c0-1.5,0.3-2.5,0.7-3.2 C17.7,16,15.5,16,15.5,16z"/><path d="M17.2 4H22.9V6H17.2z" transform="rotate(-45.009 20 5)"/><path d="M19 13L17 13 17 8 12 8 12 6 19 6z"/><path d="M11,16L11,16c-1.1,0-2-0.9-2-2l0,0V7c0-0.8,0.3-1.6,0.9-2.2L12.7,2 c0,0,0,0,0,0C8.3,1.6,4.5,4.9,4.1,9.1l-1.9,3c-0.3,0.5-0.1,1.1,0.4,1.3L4,14v3c0,1.1,0.9,2,2,2h2v3h9v-2.8c0-1.5,0.3-2.5,0.7-3.2 C17.7,16,11,16,11,16z" opacity=".3"/></svg>