<svg xmlns="http://www.w3.org/2000/svg" viewBox="0 0 50 50"><path d="M 36.996094 3 A 1.0001 1.0001 0 0 0 36.111328 3.5410156 C 36.111328 3.5410156 35.249002 5.1704932 35.078125 7.1640625 C 34.992685 8.1608472 35.077587 9.2859208 35.595703 10.345703 C 35.598803 10.352103 35.606225 10.356911 35.609375 10.363281 C 35.592595 10.390691 35.583815 10.414731 35.498047 10.482422 C 35.262511 10.668292 34.601562 11.009632 33.005859 11 A 1.0001 1.0001 0 0 0 32.328125 12.740234 C 35.049077 15.210671 38.048845 16.175397 40.617188 16.009766 C 43.053548 15.852646 45.112538 14.638671 46.052734 12.738281 A 1.0001 1.0001 0 0 0 46.160156 12.595703 C 46.174176 12.573053 46.169954 12.548131 46.183594 12.525391 C 46.195954 12.496851 46.220562 12.476106 46.232422 12.447266 L 46.208984 12.451172 C 47.10358 10.899731 47.094186 9.1445322 46.996094 7.9199219 C 46.955962 7.4215776 47.247811 6.9359153 47.65625 6.5234375 C 48.064689 6.1109597 48.484375 5.875 48.484375 5.875 A 1.0001 1.0001 0 0 0 48 4 C 47.833333 4 47.447266 3.8554687 46.947266 3.6054688 C 46.447266 3.3554688 45.833333 3 45 3 C 44.117143 3 43.295114 3.2690204 42.746094 3.8535156 C 42.197074 4.4380108 42 5.2216623 42 6 C 42 6.7631267 41.970605 6.9060457 41.984375 6.9941406 C 41.333409 6.9847626 40.193485 6.230298 39.322266 5.3125 C 38.445626 4.3889919 37.839844 3.4550781 37.839844 3.4550781 A 1.0001 1.0001 0 0 0 36.996094 3 z M 45 5 C 45.164193 5 45.547885 5.1454788 46.037109 5.3886719 C 45.472353 6.02678 44.909757 6.9109486 45.003906 8.0800781 C 45.092726 9.1889872 45.037855 10.60385 44.460938 11.539062 A 1.0001 1.0001 0 0 0 44.458984 11.541016 C 44.458984 11.541016 44.458984 11.542969 44.458984 11.542969 A 1.0001 1.0001 0 0 0 44.382812 11.6875 C 43.875321 12.922 42.459439 13.888506 40.488281 14.015625 C 39.083524 14.106215 37.413193 13.527689 35.716797 12.542969 C 36.095435 12.395653 36.485653 12.252093 36.738281 12.052734 C 36.798621 12.005114 36.806231 11.955544 36.859375 11.90625 C 37.325643 12.30327 37.865108 12.662059 38.529297 12.927734 A 1.0001 1.0001 0 1 0 39.271484 11.072266 C 38.214694 10.649439 37.699462 10.094514 37.392578 9.4667969 C 37.085694 8.8390793 37.007704 8.0891528 37.072266 7.3359375 C 37.126963 6.6977957 37.257485 6.6125841 37.417969 6.1171875 C 37.636034 6.382365 37.601248 6.4011696 37.873047 6.6875 C 38.894907 7.7639919 40.24283 9 42 9 C 42.25 9 42.470544 9.0173965 42.794922 8.9453125 C 43.1193 8.8732285 43.587774 8.5607795 43.769531 8.1972656 C 44.133045 7.4702378 44 7 44 6 C 44 5.5463377 44.102145 5.3301611 44.203125 5.2226562 C 44.304105 5.1151514 44.482857 5 45 5 z M 15 10 C 11.471823 10 8.2116637 11.142817 5.8320312 13.371094 C 3.4523988 15.599371 2 18.902365 2 23 L 2 47 A 1.0001 1.0001 0 0 0 3 48 L 27 48 A 1.0001 1.0001 0 0 0 28 47 L 28 42 L 36 42 C 37.093063 42 38 41.093063 38 40 L 38 30 C 38 28.906937 37.093063 28 36 28 L 28 28 L 28 23 C 28 18.902365 26.547601 15.599371 24.167969 13.371094 C 21.788336 11.142817 18.528177 10 15 10 z M 14 12.378906 L 14 22 L 10.064453 22 C 10.234751 16.92688 11.525638 14.388425 12.707031 13.207031 C 13.195979 12.718084 13.609588 12.550784 14 12.378906 z M 16 12.378906 C 16.390412 12.550784 16.804021 12.718084 17.292969 13.207031 C 18.474362 14.388425 19.765249 16.92688 19.935547 22 L 16 22 L 16 12.378906 z M 10.462891 12.8125 C 9.2057323 14.606769 8.2091335 17.492173 8.0664062 22 L 4.0429688 22 C 4.2509292 18.870508 5.4217812 16.494463 7.1992188 14.830078 C 8.1271868 13.961133 9.2326008 13.287759 10.462891 12.8125 z M 19.537109 12.8125 C 20.767399 13.287759 21.872813 13.961133 22.800781 14.830078 C 24.578219 16.494463 25.749071 18.870508 25.957031 22 L 21.933594 22 C 21.790866 17.492173 20.794268 14.606769 19.537109 12.8125 z M 4 24 L 8 24 L 8 46 L 4 46 L 4 24 z M 10 24 L 14 24 L 14 46 L 10 46 L 10 24 z M 16 24 L 20 24 L 20 46 L 16 46 L 16 24 z M 22 24 L 26 24 L 26 29 L 26 41 L 26 46 L 22 46 L 22 24 z M 28 30 L 31 30 L 31 40 L 28 40 L 28 30 z M 33 30 L 36 30 L 36 40 L 33 40 L 33 30 z"/></svg>