<svg xmlns="http://www.w3.org/2000/svg" viewBox="0 0 48 48"><path d="M 4.4277344 2 C 4.1837344 2 4.0810156 2.1627656 4.0410156 2.2597656 C 4.0000156 2.3557656 3.9578594 2.5437969 4.1308594 2.7167969 L 6.828125 5.4140625 C 7.207125 5.7920625 7.7081875 6 8.2421875 6 L 22.673828 6 C 22.863828 6 22.940703 5.8792969 22.970703 5.7792969 C 23.000703 5.6792969 23.003703 5.5366406 22.845703 5.4316406 L 18.201172 2.3359375 C 17.871172 2.1159375 17.486797 2 17.091797 2 L 4.4277344 2 z M 22.902344 3.0664062 L 24.328125 4.015625 C 25.393125 4.725625 26.180234 5.7413437 26.615234 6.9023438 C 32.181234 8.9033437 36.306625 14.078188 36.890625 20.492188 C 36.916625 20.785187 37.029891 21.063922 37.212891 21.294922 L 42 27.285156 L 38.003906 28.683594 C 37.402906 28.895594 37 29.461609 37 30.099609 L 37 36.337891 C 37 36.983891 36.587609 37.556719 35.974609 37.761719 L 30.392578 39.621094 C 28.961578 40.099094 28 41.433406 28 42.941406 L 28 43.5 C 28 44.328 28.671 45 29.5 45 C 30.329 45 31 44.328 31 43.5 L 31 42.941406 C 31 42.725406 31.137797 42.535797 31.341797 42.466797 L 36.923828 40.605469 C 38.763828 39.992469 40 38.277891 40 36.337891 L 40 31.164062 L 42.990234 30.117188 C 43.908234 29.795188 44.618719 29.044375 44.886719 28.109375 C 45.155719 27.174375 44.952703 26.164297 44.345703 25.404297 L 39.832031 19.763672 C 38.794031 10.655672 31.696344 3.7384063 22.902344 3.0664062 z M 2.421875 3.9902344 C 2.354875 3.9902344 2.2949063 4.0083906 2.2539062 4.0253906 C 2.1589062 4.0643906 2 4.1662969 2 4.4042969 L 2 17.119141 C 2 17.497141 2.1103125 17.864688 2.3203125 18.179688 L 5.4316406 22.845703 C 5.5376406 23.002703 5.6772969 22.998703 5.7792969 22.970703 C 5.8792969 22.938703 6 22.862828 6 22.673828 L 6 8.2050781 C 6 7.6950781 5.8004531 7.2155156 5.4394531 6.8535156 L 2.6992188 4.1132812 C 2.6052187 4.0192812 2.506875 3.9902344 2.421875 3.9902344 z M 9 8 C 8.449 8 8 8.448 8 9 L 8 24 C 8 24.552 8.449 25 9 25 L 24 25 C 24.551 25 25 24.552 25 24 L 25 9 C 25 8.448 24.551 8 24 8 L 9 8 z M 3.0449219 22.869141 C 3.2699219 27.825141 5.3772188 32.548547 8.9492188 35.935547 C 10.271219 37.190547 11 38.80075 11 40.46875 L 11 43.5 C 11 44.328 11.671 45 12.5 45 C 13.329 45 14 44.328 14 43.5 L 14 40.46875 C 14 37.96975 12.938672 35.586766 11.013672 33.759766 C 8.9286719 31.782766 7.4403906 29.259813 6.6503906 26.507812 C 5.5963906 26.056812 4.6745781 25.313125 4.0175781 24.328125 L 3.0449219 22.869141 z"/></svg>