<?xml version="1.0"?><svg xmlns="http://www.w3.org/2000/svg" viewBox="0 0 24 24">    <path d="M 21.980469 1.9902344 A 1.0001 1.0001 0 0 0 21.869141 2 L 16 2 A 1.0001 1.0001 0 0 0 15.292969 2.2929688 L 11.292969 6.2929688 A 1.0001 1.0001 0 0 0 11 7 L 11 13 A 1.0001 1.0001 0 0 0 12 14 L 17.832031 14 A 1.0001 1.0001 0 0 0 18.792969 13.623047 A 1.0001 1.0001 0 0 0 18.796875 13.617188 L 22.707031 9.7070312 A 1.0001 1.0001 0 0 0 23 9 L 23 3.1269531 A 1.0001 1.0001 0 0 0 21.980469 1.9902344 z M 11.894531 2.0019531 C 7.8222913 2.0537134 4.4867969 5.1478125 4.0527344 9.1171875 L 2.1582031 12.087891 C 1.8542031 12.563891 2.0532188 13.199922 2.5742188 13.419922 L 4 14.021484 L 4 17 C 4 18.105 4.895 19 6 19 L 8 19 L 8 22 L 17 22 L 17 19.240234 C 17 17.753234 17.287594 16.782 17.683594 16 L 11 16 C 9.895 16 9 15.105 9 14 L 9 7.0449219 C 9 6.2209219 9.3271562 5.4296562 9.9101562 4.8476562 L 12.720703 2.0371094 C 12.719703 2.0341094 12.71975 2.03425 12.71875 2.03125 C 12.441375 2.007 12.166014 1.9985024 11.894531 2.0019531 z M 16.414062 4 L 19.585938 4 L 17.585938 6 L 14.414062 6 L 16.414062 4 z M 21 5.4140625 L 21 8.5859375 L 19 10.585938 L 19 7.4140625 L 21 5.4140625 z M 13 8 L 17 8 L 17 12 L 13 12 L 13 8 z"/></svg>