<svg xmlns="http://www.w3.org/2000/svg" viewBox="0 0 50 50"><path d="M 24.921875 3 C 14.343875 3 8.5992344 8.2759531 7.3652344 19.126953 L 3.3378906 26.066406 C 2.6248906 27.350406 3.0659063 28.912625 4.3789062 29.640625 L 7.421875 31.162109 L 8.4003906 37.943359 C 8.8063906 40.476359 11.130891 43.092047 13.962891 42.998047 L 17 42.998047 L 17 46.998047 L 37 46.998047 L 37 40.59375 C 37 37.73275 37.968922 34.835563 39.794922 32.226562 C 40.137931 31.749776 40.437317 31.230706 40.716797 30.697266 A 1.0001 1.0001 0 0 0 40.71875 30.695312 C 40.719157 30.694535 40.720296 30.694137 40.720703 30.693359 A 1.0001 1.0001 0 0 0 40.759766 30.650391 L 40.783203 30.621094 L 46.759766 23.650391 A 1.0001 1.0001 0 0 0 47 23 L 47 4 A 1.0001 1.0001 0 0 0 47 3.984375 A 1.0001 1.0001 0 0 0 46.994141 3.9003906 A 1.0001 1.0001 0 0 0 46.992188 3.8847656 A 1.0001 1.0001 0 0 0 46.990234 3.8769531 A 1.0001 1.0001 0 0 0 46.976562 3.7871094 A 1.0001 1.0001 0 0 0 46.962891 3.734375 A 1.0001 1.0001 0 0 0 46.955078 3.7050781 A 1.0001 1.0001 0 0 0 46.9375 3.65625 A 1.0001 1.0001 0 0 0 46.753906 3.34375 A 1.0001 1.0001 0 0 0 46.697266 3.2832031 A 1.0001 1.0001 0 0 0 46.685547 3.2714844 A 1.0001 1.0001 0 0 0 46.621094 3.2167969 A 1.0001 1.0001 0 0 0 46.619141 3.2167969 A 1.0001 1.0001 0 0 0 46.609375 3.2070312 A 1.0001 1.0001 0 0 0 46.541016 3.1582031 A 1.0001 1.0001 0 0 0 46.527344 3.1503906 A 1.0001 1.0001 0 0 0 46.363281 3.0683594 A 1.0001 1.0001 0 0 0 46.347656 3.0625 A 1.0001 1.0001 0 0 0 46.335938 3.0585938 A 1.0001 1.0001 0 0 0 46.154297 3.0117188 A 1.0001 1.0001 0 0 0 46.148438 3.0117188 A 1.0001 1.0001 0 0 0 46 3 L 28 3 A 1.0001 1.0001 0 0 0 27.474609 3.1503906 C 26.655117 3.0611929 25.813279 3 24.921875 3 z M 28.333984 5 L 43.585938 5 L 39.585938 9 L 23 9 L 28.333984 5 z M 28 6 A 1 1 0 0 0 27 7 A 1 1 0 0 0 28 8 A 1 1 0 0 0 29 7 A 1 1 0 0 0 28 6 z M 45 6.4140625 L 45 22.630859 L 41 27.296875 L 41 10.414062 L 45 6.4140625 z M 21 11 L 39 11 L 39 29 L 22.414062 29 L 22.707031 28.707031 A 1.0001 1.0001 0 0 0 22.716797 28.697266 A 1 1 0 0 0 22.722656 28.689453 A 1.0001 1.0001 0 0 0 21.980469 26.990234 A 1.0001 1.0001 0 0 0 21.365234 27.228516 A 1 1 0 0 0 21.353516 27.236328 A 1.0001 1.0001 0 0 0 21.292969 27.292969 A 1 1 0 0 0 21.283203 27.302734 L 21 27.585938 L 21 11 z M 28 12 A 1 1 0 0 0 27 13 A 1 1 0 0 0 28 14 A 1 1 0 0 0 29 13 A 1 1 0 0 0 28 12 z M 28 15 A 1 1 0 0 0 27 16 A 1 1 0 0 0 28 17 A 1 1 0 0 0 29 16 A 1 1 0 0 0 28 15 z M 28 18 A 1 1 0 0 0 27 19 A 1 1 0 0 0 28 20 A 1 1 0 0 0 29 19 A 1 1 0 0 0 28 18 z M 28 21 A 1 1 0 0 0 27 22 A 1 1 0 0 0 28 23 A 1 1 0 0 0 29 22 A 1 1 0 0 0 28 21 z M 31 21 A 1 1 0 0 0 30 22 A 1 1 0 0 0 31 23 A 1 1 0 0 0 32 22 A 1 1 0 0 0 31 21 z M 34 21 A 1 1 0 0 0 33 22 A 1 1 0 0 0 34 23 A 1 1 0 0 0 35 22 A 1 1 0 0 0 34 21 z M 37 21 A 1 1 0 0 0 36 22 A 1 1 0 0 0 37 23 A 1 1 0 0 0 38 22 A 1 1 0 0 0 37 21 z M 43 21 A 1 1 0 0 0 42 22 A 1 1 0 0 0 43 23 A 1 1 0 0 0 44 22 A 1 1 0 0 0 43 21 z M 26 23 A 1 1 0 0 0 25 24 A 1 1 0 0 0 26 25 A 1 1 0 0 0 27 24 A 1 1 0 0 0 26 23 z M 24 25 A 1 1 0 0 0 23 26 A 1 1 0 0 0 24 27 A 1 1 0 0 0 25 26 A 1 1 0 0 0 24 25 z"/></svg>