<svg xmlns="http://www.w3.org/2000/svg" width="40" height="40" viewBox="0 0 40 40"><rect width="25" height="35" x="7.5" y="2.5" fill="#dbf2ff"/><path fill="#7496c4" d="M33,38H7V2h26V38z M8,37h24V3H8V37z"/><path fill="#b0c1d4" d="M23.497,15.5H17.5v-10h6v2H20v2h2.5v2H20v2h3.5L23.497,15.5z"/><path fill="#66798f" d="M23.996,16H17V5h7v3h-3.5v1H23v3h-2.5v1h3.501L23.996,16z M18,15h4.998l0.001-1H19.5v-3H22v-1h-2.5 V7H23V6h-5V15z"/><path fill="#66798f" d="M16.182,18.917h-2.056v1.227h1.621v0.913h-1.621V23H13v-5h3.182V18.917z"/><path fill="#66798f" d="M24.126,21.277V23H23v-5h1.764c1.26,0,1.89,0.531,1.89,1.593c0,0.502-0.181,0.908-0.542,1.219	c-0.361,0.31-0.844,0.465-1.449,0.465H24.126z M24.126,18.865v1.559h0.443c0.6,0,0.9-0.263,0.9-0.788c0-0.514-0.3-0.771-0.9-0.771	H24.126z"/><path fill="#66798f" d="M14.736,26.68h-0.969v2.773H13V26.68h-0.964v-0.623h2.7V26.68z"/><path fill="#66798f" d="M19.976,29.512c-0.486,0-0.883-0.158-1.189-0.475c-0.306-0.317-0.459-0.729-0.459-1.237	c0-0.537,0.155-0.971,0.466-1.302S19.517,26,20.03,26c0.485,0,0.877,0.159,1.176,0.476c0.299,0.317,0.449,0.736,0.449,1.255	c0,0.534-0.155,0.964-0.465,1.291C20.879,29.349,20.475,29.512,19.976,29.512z M20.009,26.659c-0.268,0-0.481,0.1-0.639,0.302	c-0.158,0.201-0.237,0.468-0.237,0.799c0,0.336,0.079,0.602,0.237,0.798c0.158,0.196,0.365,0.293,0.62,0.293	c0.264,0,0.473-0.095,0.628-0.285s0.232-0.454,0.232-0.792c0-0.352-0.075-0.626-0.225-0.822S20.269,26.659,20.009,26.659z"/><path fill="#66798f" d="M28,29.453h-2.735v-0.44l1.741-2.333H25.39v-0.623h2.605v0.429l-1.703,2.347H28V29.453z"/><path fill="#66798f" d="M13.39,35H12v-2.333h0.525v1.907h0.864V35z"/><path fill="#66798f" d="M17.525,34.196V35H17v-2.333h0.823c0.588,0,0.882,0.248,0.882,0.744c0,0.234-0.084,0.424-0.253,0.569	c-0.169,0.145-0.394,0.217-0.676,0.217H17.525z M17.525,33.07v0.727h0.207c0.28,0,0.42-0.123,0.42-0.368c0-0.24-0.14-0.36-0.42-0.36	H17.525z"/><path fill="#66798f" d="M23.399,35H22v-2.333h1.346v0.428h-0.82v0.519h0.763v0.426h-0.763v0.534h0.874V35z"/><path fill="#66798f" d="M26,35v-2.333h0.826c0.829,0,1.243,0.379,1.243,1.137c0,0.363-0.113,0.654-0.339,0.87	C27.504,34.892,27.203,35,26.826,35H26z M26.525,33.095v1.479h0.26c0.228,0,0.407-0.068,0.536-0.205	c0.13-0.136,0.194-0.323,0.194-0.558c0-0.222-0.064-0.397-0.193-0.525c-0.129-0.127-0.309-0.191-0.541-0.191H26.525z"/></svg>