<svg xmlns="http://www.w3.org/2000/svg" viewBox="0 0 48 48"><path d="M 24.498047 3 C 22.291047 3 20.496094 4.7969062 20.496094 7.0039062 L 20.496094 22.904297 C 21.044094 22.950297 21.674312 22.984094 22.445312 22.996094 L 22.501953 22.996094 L 22.556641 23.001953 C 22.572641 23.002953 22.589469 23.004859 22.605469 23.005859 L 23.107422 23.005859 L 27.5 23.005859 C 27.836 23.005859 28.17 23.035891 28.5 23.087891 L 28.5 7.0039062 C 28.5 4.7969063 26.705047 3 24.498047 3 z M 14 7.03125 C 11.794 7.03125 10 8.82525 10 11.03125 L 10 22.701172 C 11.174 22.265172 12.449172 22.005859 13.826172 22.005859 C 15.652172 22.005859 16.760078 22.248375 17.830078 22.484375 C 17.885078 22.496375 17.944 22.509484 18 22.521484 L 18 11.03125 C 18 8.82525 16.206 7.03125 14 7.03125 z M 35.001953 9 C 32.795953 9 31.001953 10.795 31.001953 13 L 31.001953 24.050781 C 31.024953 24.065781 31.048266 24.075797 31.072266 24.091797 L 31.1875 24.167969 L 31.292969 24.259766 C 31.644969 24.569766 31.948266 24.922641 32.197266 25.306641 L 32.794922 24.939453 C 33.837922 24.300453 35.411391 23.439484 37.900391 22.146484 L 38.802734 21.675781 C 38.872734 21.639781 38.932 21.608266 39 21.572266 L 39 13 C 39 10.795 37.207953 9 35.001953 9 z M 43.367188 22.005859 C 42.341187 22.005859 41.214313 22.679875 38.820312 23.921875 C 36.837313 24.951875 35.004844 25.930531 33.839844 26.644531 C 33.940844 27.082531 34 27.537859 34 28.005859 C 34 31.314859 31.308 34.005859 28 34.005859 L 20.5 34.005859 C 19.672 34.005859 19 33.334859 19 32.505859 C 19 31.676859 19.672 31.005859 20.5 31.005859 L 28 31.005859 C 29.654 31.005859 31 29.659859 31 28.005859 C 31 27.108859 30.596703 26.310766 29.970703 25.759766 C 29.259703 25.289766 28.415 25.005859 27.5 25.005859 L 23.107422 25.005859 L 22.5 25.005859 C 22.471 25.005859 22.443062 24.998094 22.414062 24.996094 C 19.778063 24.955094 18.513391 24.6825 17.400391 24.4375 C 16.388391 24.2145 15.431172 24.005859 13.826172 24.005859 C 6.4941719 24.005859 2.3087656 33.005672 2.1347656 33.388672 C 1.9087656 33.884672 1.9699687 34.462391 2.2929688 34.900391 L 9.2929688 44.394531 C 9.5779688 44.781531 10.026094 45 10.496094 45 C 10.591094 45 10.68625 44.990656 10.78125 44.972656 C 11.34725 44.864656 11.804172 44.437859 11.951172 43.880859 C 12.030172 43.585859 12.795 41.005859 15.5 41.005859 C 17.452 41.005859 19.470828 41.257 21.423828 41.5 C 23.412828 41.749 25.471 42.005859 27.5 42.005859 C 30.263 42.005859 32.252 39.886859 38 34.005859 C 45.302 26.534859 46 25.881391 46 24.400391 C 46 23.118391 44.875188 22.005859 43.367188 22.005859 z"/></svg>