<svg xmlns="http://www.w3.org/2000/svg" viewBox="0 0 24 24"><path d="M21.43,13.01l-1.73-2.1C19.21,6.5,17,2,11,2c-5.66,0.01-9,4.14-9,9.47c0,3.83,1.9,5.58,2.67,8.25 C5.06,21.06,6.22,22,7.56,22c2.021,0,6.572,0,8.63,0c1.43,0,2.661-1.01,2.94-2.412l0.52-2.608l1.12-0.62 C22,15.7,22.31,14.09,21.43,13.01z" opacity=".35"/><path d="M11.377,4.517L7.789,3.146c-0.508-0.194-1.07-0.194-1.578,0L2.623,4.517C2.248,4.66,2,5.02,2,5.421v4.157	c0,0.401,0.248,0.761,0.623,0.905l3.588,1.371c0.508,0.194,1.07,0.194,1.578,0l3.588-1.371C11.752,10.34,12,9.98,12,9.579V5.422	C12,5.02,11.752,4.66,11.377,4.517z M7,7.161v2.31C7,9.729,6.745,9.91,6.501,9.825l-2.25-0.784C4.101,8.989,4,8.847,4,8.688V6.217	c0-0.241,0.145-0.458,0.367-0.55l2.352-0.978C6.9,4.614,7.102,4.609,7.286,4.674l1.913,0.679c0.24,0.085,0.247,0.423,0.011,0.518	L7.373,6.609C7.148,6.699,7,6.918,7,7.161z"/></svg>