<svg xmlns="http://www.w3.org/2000/svg" viewBox="0 0 100 100"><path fill="#c7ede6" d="M87.215,56.71C88.35,54.555,89,52.105,89,49.5c0-6.621-4.159-12.257-10.001-14.478 C78.999,35.015,79,35.008,79,35c0-11.598-9.402-21-21-21c-9.784,0-17.981,6.701-20.313,15.757C36.211,29.272,34.638,29,33,29 c-7.692,0-14.023,5.793-14.89,13.252C12.906,43.353,9,47.969,9,53.5C9,59.851,14.149,65,20.5,65c0.177,0,0.352-0.012,0.526-0.022 C21.022,65.153,21,65.324,21,65.5C21,76.822,30.178,86,41.5,86c6.437,0,12.175-2.972,15.934-7.614C59.612,80.611,62.64,82,66,82 c4.65,0,8.674-2.65,10.666-6.518C77.718,75.817,78.837,76,80,76c6.075,0,11-4.925,11-11C91,61.689,89.53,58.727,87.215,56.71z"/><path fill="#fff" d="M16,50.5c0,0.28-0.22,0.5-0.5,0.5H9.28c0.07-0.34,0.16-0.67,0.26-1h5.96C15.78,50,16,50.22,16,50.5z"/><path fill="#fff" d="M18.5,51h-1c-0.276,0-0.5-0.224-0.5-0.5s0.224-0.5,0.5-0.5h1c0.276,0,0.5,0.224,0.5,0.5 S18.777,51,18.5,51z"/><path fill="#fff" d="M23.491,53H14.5c-0.276,0-0.5-0.224-0.5-0.5s0.224-0.5,0.5-0.5h8.991c0.276,0,0.5,0.224,0.5,0.5 S23.767,53,23.491,53z"/><path fill="#fff" d="M12.5,53h-1c-0.276,0-0.5-0.224-0.5-0.5s0.224-0.5,0.5-0.5h1c0.276,0,0.5,0.224,0.5,0.5 S12.777,53,12.5,53z"/><path fill="#fff" d="M10,52.5c0,0.28-0.22,0.5-0.5,0.5H9.01c0.02-0.34,0.04-0.67,0.09-1h0.4C9.78,52,10,52.22,10,52.5z"/><path fill="#fff" d="M15.5,55h-2c-0.276,0-0.5-0.224-0.5-0.5s0.224-0.5,0.5-0.5h2c0.276,0,0.5,0.224,0.5,0.5 S15.776,55,15.5,55z"/><path fill="#fff" d="M18.5,46c-0.177,0-0.823,0-1,0c-0.276,0-0.5,0.224-0.5,0.5c0,0.276,0.224,0.5,0.5,0.5 c0.177,0,0.823,0,1,0c0.276,0,0.5-0.224,0.5-0.5C19,46.224,18.776,46,18.5,46z"/><path fill="#fff" d="M18.5,48c-0.177,0-4.823,0-5,0c-0.276,0-0.5,0.224-0.5,0.5c0,0.276,0.224,0.5,0.5,0.5 c0.177,0,4.823,0,5,0c0.276,0,0.5-0.224,0.5-0.5C19,48.224,18.776,48,18.5,48z"/><path fill="#fff" d="M23.5,50c-0.177,0-2.823,0-3,0c-0.276,0-0.5,0.224-0.5,0.5c0,0.276,0.224,0.5,0.5,0.5 c0.177,0,2.823,0,3,0c0.276,0,0.5-0.224,0.5-0.5C24,50.224,23.776,50,23.5,50z"/><path fill="#fff" d="M84.5,55h-10c-0.276,0-0.5-0.224-0.5-0.5s0.224-0.5,0.5-0.5h10c0.276,0,0.5,0.224,0.5,0.5 S84.776,55,84.5,55z"/><path fill="#fff" d="M88.33,54c-0.1,0.34-0.22,0.67-0.35,1H86.5c-0.28,0-0.5-0.22-0.5-0.5s0.22-0.5,0.5-0.5H88.33z"/><path fill="#fff" d="M87.22,56.71c0.11,0.09,0.21,0.19,0.31,0.29H83.5c-0.28,0-0.5-0.22-0.5-0.5s0.22-0.5,0.5-0.5h4.07 C87.46,56.24,87.34,56.48,87.22,56.71z"/><path fill="#fff" d="M81.5,57h-1c-0.276,0-0.5-0.224-0.5-0.5s0.224-0.5,0.5-0.5h1c0.276,0,0.5,0.224,0.5,0.5 S81.776,57,81.5,57z"/><path fill="#fff" d="M78.47,57H76.5c-0.276,0-0.5-0.224-0.5-0.5s0.224-0.5,0.5-0.5h1.97c0.276,0,0.5,0.224,0.5,0.5 S78.746,57,78.47,57z"/><path fill="#fff" d="M87.5,53h-5c-0.276,0-0.5-0.224-0.5-0.5s0.224-0.5,0.5-0.5h5c0.276,0,0.5,0.224,0.5,0.5 S87.777,53,87.5,53z"/><path fill="#fff" d="M84.5,59h-2c-0.276,0-0.5-0.224-0.5-0.5s0.224-0.5,0.5-0.5h2c0.276,0,0.5,0.224,0.5,0.5 S84.776,59,84.5,59z"/><path fill="#472b29" d="M34,73.5h-1V50.747c0-11.944,8.376-12.738,8.461-12.745l0.08,0.997 C41.232,39.024,34,39.757,34,50.747V73.5z"/><rect width="1" height="35" x="41" y="38.5" fill="#472b29"/><path fill="#472b29" d="M62,55.4v9.2h-8v-9.2H62 M62.4,54h-9.8v12h9.8c0.552,0,1-0.413,1-0.923V54.923 C63.4,54.413,62.952,54,62.4,54L62.4,54z"/><rect width="1" height="10.616" x="56" y="54.461" fill="#472b29"/><rect width="1" height="10.616" x="59" y="54.461" fill="#472b29"/><path fill="#472b29" d="M38,73.5h-1V50.747c0-11.911,4.242-12.712,4.423-12.741l0.154,0.988C41.552,39,38,39.849,38,50.747 V73.5z"/><path fill="#472b29" d="M50,73.5h-1V50.747c0-10.989-7.232-11.722-7.541-11.748l0.08-0.997 C41.624,38.008,50,38.802,50,50.747V73.5z"/><path fill="#472b29" d="M46,73.5h-1V50.747C45,39.849,41.448,39,41.412,38.992l0.166-0.986 C41.758,38.034,46,38.835,46,50.747V73.5z"/><rect width="23.5" height="3.5" x="29.5" y="70" fill="#9f8066"/><rect width="23.5" height="1" x="29.5" y="50" fill="#472b29"/><rect width="23.5" height="1" x="29.5" y="69" fill="#472b29"/><path fill="#472b29" d="M41.5,39.4c6.121,0,11.1,4.979,11.1,11.1v22.1H30.4V50.5C30.4,44.379,35.379,39.4,41.5,39.4 M41.5,38L41.5,38C34.596,38,29,43.596,29,50.5V73c0,0.552,0.448,1,1,1h23c0.552,0,1-0.448,1-1V50.5C54,43.596,48.404,38,41.5,38 L41.5,38z"/><path fill="#fdfcef" d="M38.5,34.5V35h3v-0.5c0,0,4.242,0,5.5,0c2.485,0,4.5-2.015,4.5-4.5c0-2.333-1.782-4.229-4.055-4.455 C47.467,25.364,47.5,25.187,47.5,25c0-2.485-2.015-4.5-4.5-4.5c-1.438,0-2.703,0.686-3.527,1.736 C39.333,19.6,37.171,17.5,34.5,17.5c-2.761,0-5,2.239-5,5c0,0.446,0.077,0.87,0.187,1.282C29.045,23.005,28.086,22.5,27,22.5 c-1.781,0-3.234,1.335-3.455,3.055C23.364,25.533,23.187,25.5,23,25.5c-2.485,0-4.5,2.015-4.5,4.5s2.015,4.5,4.5,4.5s9.5,0,9.5,0 H38.5z"/><path fill="#472b29" d="M34.5,17c-3.033,0-5.5,2.467-5.5,5.5c0,0.016,0,0.031,0,0.047C28.398,22.192,27.71,22,27,22 c-1.831,0-3.411,1.261-3.858,3.005C23.095,25.002,23.048,25,23,25c-2.757,0-5,2.243-5,5s2.243,5,5,5h15.5 c0.276,0,0.5-0.224,0.5-0.5S38.776,34,38.5,34H23c-2.206,0-4-1.794-4-4s1.794-4,4-4c0.117,0,0.23,0.017,0.343,0.032l0.141,0.019 c0.021,0.003,0.041,0.004,0.062,0.004c0.246,0,0.462-0.185,0.495-0.437C24.232,24.125,25.504,23,27,23 c0.885,0,1.723,0.401,2.301,1.1c0.098,0.118,0.241,0.182,0.386,0.182c0.078,0,0.156-0.018,0.228-0.056 c0.209-0.107,0.314-0.346,0.254-0.573C30.054,23.218,30,22.852,30,22.5c0-2.481,2.019-4.5,4.5-4.5c2.381,0,4.347,1.872,4.474,4.263 c0.011,0.208,0.15,0.387,0.349,0.45c0.05,0.016,0.101,0.024,0.152,0.024c0.15,0,0.296-0.069,0.392-0.192 C40.638,21.563,41.779,21,43,21c2.206,0,4,1.794,4,4c0,0.117-0.017,0.23-0.032,0.343l-0.019,0.141 c-0.016,0.134,0.022,0.268,0.106,0.373c0.084,0.105,0.207,0.172,0.34,0.185C49.451,26.247,51,27.949,51,30c0,2.206-1.794,4-4,4 h-5.5c-0.276,0-0.5,0.224-0.5,0.5s0.224,0.5,0.5,0.5H47c2.757,0,5-2.243,5-5c0-2.397-1.689-4.413-4.003-4.877 C47.999,25.082,48,25.041,48,25c0-2.757-2.243-5-5-5c-1.176,0-2.293,0.416-3.183,1.164C39.219,18.76,37.055,17,34.5,17L34.5,17z"/><path fill="#472b29" d="M33,24c-1.403,0-2.609,0.999-2.913,2.341C29.72,26.119,29.301,26,28.875,26 c-1.202,0-2.198,0.897-2.353,2.068C26.319,28.022,26.126,28,25.937,28c-1.529,0-2.811,1.2-2.918,2.732 C23.01,30.87,23.114,30.99,23.251,31c0.006,0,0.012,0,0.018,0c0.13,0,0.24-0.101,0.249-0.232c0.089-1.271,1.151-2.268,2.419-2.268 c0.229,0,0.47,0.042,0.738,0.127c0.022,0.007,0.045,0.01,0.067,0.01c0.055,0,0.11-0.02,0.156-0.054 C26.962,28.537,27,28.455,27,28.375c0-1.034,0.841-1.875,1.875-1.875c0.447,0,0.885,0.168,1.231,0.473 c0.047,0.041,0.106,0.063,0.165,0.063c0.032,0,0.063-0.006,0.093-0.019c0.088-0.035,0.148-0.117,0.155-0.212 C30.623,25.512,31.712,24.5,33,24.5c0.208,0,0.425,0.034,0.682,0.107c0.023,0.007,0.047,0.01,0.07,0.01 c0.109,0,0.207-0.073,0.239-0.182c0.038-0.133-0.039-0.271-0.172-0.309C33.517,24.04,33.256,24,33,24L33,24z"/><path fill="#472b29" d="M46.883,25.5c-1.326,0-2.508,0.897-2.874,2.182c-0.038,0.133,0.039,0.271,0.172,0.309 C44.205,27.997,44.228,28,44.25,28c0.109,0,0.209-0.072,0.24-0.182C44.795,26.748,45.779,26,46.883,26 c0.117,0,0.23,0.014,0.342,0.029c0.012,0.002,0.023,0.003,0.035,0.003c0.121,0,0.229-0.092,0.246-0.217 c0.019-0.137-0.077-0.263-0.214-0.281C47.158,25.516,47.022,25.5,46.883,25.5L46.883,25.5z"/><path fill="#fdfcef" d="M79.5,77.5c0,0,1.567,0,3.5,0s3.5-1.567,3.5-3.5c0-1.781-1.335-3.234-3.055-3.455 C83.473,70.366,83.5,70.187,83.5,70c0-1.933-1.567-3.5-3.5-3.5c-1.032,0-1.95,0.455-2.59,1.165 c-0.384-1.808-1.987-3.165-3.91-3.165c-2.209,0-4,1.791-4,4c0,0.191,0.03,0.374,0.056,0.558C69.128,68.714,68.592,68.5,68,68.5 c-1.228,0-2.245,0.887-2.455,2.055C65.366,70.527,65.187,70.5,65,70.5c-1.933,0-3.5,1.567-3.5,3.5s1.567,3.5,3.5,3.5s7.5,0,7.5,0 V78h7V77.5z"/><path fill="#472b29" d="M81.25,73C81.112,73,81,72.888,81,72.75c0-1.223,0.995-2.218,2.218-2.218 c0.034,0.009,0.737-0.001,1.244,0.136c0.133,0.036,0.212,0.173,0.176,0.306c-0.036,0.134-0.173,0.213-0.306,0.176 c-0.444-0.12-1.1-0.12-1.113-0.118c-0.948,0-1.719,0.771-1.719,1.718C81.5,72.888,81.388,73,81.25,73z"/><circle cx="74.5" cy="77.5" r=".5" fill="#472b29"/><path fill="#472b29" d="M83,78h-3.5c-0.276,0-0.5-0.224-0.5-0.5s0.224-0.5,0.5-0.5H83c1.654,0,3-1.346,3-3 c0-1.496-1.125-2.768-2.618-2.959c-0.134-0.018-0.255-0.088-0.336-0.196s-0.115-0.244-0.094-0.377C82.975,70.314,83,70.16,83,70 c0-1.654-1.346-3-3-3c-0.85,0-1.638,0.355-2.219,1c-0.125,0.139-0.321,0.198-0.5,0.148c-0.182-0.049-0.321-0.195-0.36-0.379 C76.58,66.165,75.141,65,73.5,65c-1.93,0-3.5,1.57-3.5,3.5c0,0.143,0.021,0.28,0.041,0.418c0.029,0.203-0.063,0.438-0.242,0.54 c-0.179,0.102-0.396,0.118-0.556-0.01C68.878,69.155,68.449,69,68,69c-0.966,0-1.792,0.691-1.963,1.644 c-0.048,0.267-0.296,0.446-0.569,0.405C65.314,71.025,65.16,71,65,71c-1.654,0-3,1.346-3,3s1.346,3,3,3h7.5 c0.276,0,0.5,0.224,0.5,0.5S72.776,78,72.5,78H65c-2.206,0-4-1.794-4-4s1.794-4,4-4c0.059,0,0.116,0.002,0.174,0.006 C65.588,68.82,66.711,68,68,68c0.349,0,0.689,0.061,1.011,0.18C69.176,65.847,71.126,64,73.5,64c1.831,0,3.466,1.127,4.153,2.774 C78.333,66.276,79.155,66,80,66c2.206,0,4,1.794,4,4c0,0.048-0.001,0.095-0.004,0.142C85.739,70.59,87,72.169,87,74 C87,76.206,85.206,78,83,78z"/><path fill="#472b29" d="M77.5,77c-0.159,0-0.841,0-1,0c-0.276,0-0.5,0.224-0.5,0.5c0,0.276,0.224,0.5,0.5,0.5 c0.159,0,0.841,0,1,0c0.276,0,0.5-0.224,0.5-0.5C78,77.224,77.776,77,77.5,77z"/><path fill="#fcc938" d="M74.3,31.023c-1.035,0-2.069-1.223-3.104-1.223c-1.449,0-2.069,0.986-2.069,2.247 c0,2.047,0,2.047-1.035,2.047c-2.49,0-5.173-4.393-5.173-4.393s-2.758,3.967-0.117,6.745l-0.096,0.038c0,0-0.325,1.726-3.925,1.705 c6.673,3.594,11.574,1.524,12.442-0.081c0.492-0.91,1.106-2.799,1.007-4.012C72.08,32.239,74.3,31.023,74.3,31.023z"/><path fill="#e2900e" d="M62.844,29.906c0,0-2.766,3.789,0.195,6.094c2.961,2.305,5.439,1.507,6.2-0.246 C68.761,34.246,69,33.779,67,33.89C65,32.11,64.688,31.813,62.844,29.906z"/><path fill="#472b29" d="M66.208,40.976c-2.694,0-5.688-0.927-7.858-2.183c-0.275-0.159-0.408-0.483-0.325-0.79 c0.083-0.305,0.359-0.517,0.675-0.517c0.036-0.003,0.045,0,0.066,0c2.063,0,3.212-0.601,3.759-1.015 c-0.719-0.659-1.183-1.438-1.383-2.327c-0.55-2.441,1.143-4.764,1.215-4.861c0.138-0.187,0.357-0.296,0.593-0.283 c0.232,0.01,0.445,0.136,0.566,0.334c0.645,1.053,2.869,4.058,4.576,4.058c0.1,0,0.214,0,0.305-0.003 c0.03-0.257,0.03-0.769,0.03-1.343c0-1.818,1.062-2.947,2.77-2.947c0.709,0,1.346,0.377,1.908,0.709 c0.428,0.253,0.87,0.514,1.195,0.514c0.319,0,0.597,0.216,0.677,0.525c0.08,0.309-0.06,0.633-0.339,0.788 c-0.019,0.01-1.821,1.026-1.71,2.4c0.123,1.506-0.294,3.169-1.115,4.447C70.662,40.276,68.548,40.976,66.208,40.976z M61.195,38.595c3.708,1.407,7.977,1.41,9.439-0.867c0.66-1.03,0.996-2.367,0.898-3.578c-0.103-1.254,0.61-2.242,1.29-2.887 c-0.148-0.082-0.292-0.167-0.432-0.249c-0.428-0.253-0.87-0.514-1.195-0.514c-0.339,0-1.369,0-1.369,1.547 c0,0.795,0,1.393-0.109,1.824c0.622,1.799-0.104,2.788-0.6,3.221c-1.354,1.182-3.991,0.99-5.213,0.338 c-0.072-0.039-0.143-0.078-0.212-0.117C63.273,37.696,62.482,38.256,61.195,38.595z M62.964,31.021 c-0.343,0.725-0.69,1.788-0.455,2.822c0.216,0.949,0.908,1.74,2.054,2.352c0.847,0.452,2.813,0.561,3.633-0.158 c0.131-0.114,0.487-0.425,0.321-1.262c-0.129,0.012-0.271,0.019-0.426,0.019C65.998,34.793,63.975,32.42,62.964,31.021z"/></svg>