<svg xmlns="http://www.w3.org/2000/svg" viewBox="0 0 50 50"><path d="M 38 3 C 38 3 34.067641 6.9380938 37.306641 10.621094 C 36.770641 10.765094 35.489 11.015 33 11 C 36.984 15.188 44.774031 14.649969 46.332031 11.417969 C 47.030031 9.9699687 47 9 47 8 C 47 6.182 49 4 49 4 C 48 4 46.5 3.0996094 45.5 3.0996094 C 44.099 3.0996094 43 4 43 6 L 43 6.703125 L 43 6.9316406 L 43 7 C 40.594 7 38 3 38 3 z M 15 10 C 11.471823 10 8.2116637 11.142817 5.8320312 13.371094 C 3.4523988 15.599371 2 18.902365 2 23 L 2 47 A 1.0001 1.0001 0 0 0 3 48 L 27 48 A 1.0001 1.0001 0 0 0 28 47 L 28 42 L 36 42 C 37.093063 42 38 41.093063 38 40 L 38 30 C 38 28.906937 37.093063 28 36 28 L 28 28 L 28 23 C 28 18.902365 26.547601 15.599371 24.167969 13.371094 C 21.788336 11.142817 18.528177 10 15 10 z M 14 12.378906 L 14 22 L 10.064453 22 C 10.234751 16.92688 11.525638 14.388425 12.707031 13.207031 C 13.195979 12.718084 13.609588 12.550784 14 12.378906 z M 16 12.378906 C 16.390412 12.550784 16.804021 12.718084 17.292969 13.207031 C 18.474362 14.388425 19.765249 16.92688 19.935547 22 L 16 22 L 16 12.378906 z M 10.462891 12.8125 C 9.2057323 14.606769 8.2091335 17.492173 8.0664062 22 L 4.0429688 22 C 4.2509292 18.870508 5.4217812 16.494463 7.1992188 14.830078 C 8.1271868 13.961133 9.2326008 13.287759 10.462891 12.8125 z M 19.537109 12.8125 C 20.767399 13.287759 21.872813 13.961133 22.800781 14.830078 C 24.578219 16.494463 25.749071 18.870508 25.957031 22 L 21.933594 22 C 21.790866 17.492173 20.794268 14.606769 19.537109 12.8125 z M 4 24 L 8 24 L 8 46 L 4 46 L 4 24 z M 10 24 L 14 24 L 14 46 L 10 46 L 10 24 z M 16 24 L 20 24 L 20 46 L 16 46 L 16 24 z M 22 24 L 26 24 L 26 29 L 26 41 L 26 46 L 22 46 L 22 24 z M 28 30 L 31 30 L 31 40 L 28 40 L 28 30 z M 33 30 L 36 30 L 36 40 L 33 40 L 33 30 z"/></svg>