<svg xmlns="http://www.w3.org/2000/svg" viewBox="0 0 48 48"><path d="M 24.5 3 C 22.019 3 20 5.019 20 7.5 L 20 22.855469 C 20.759 22.939469 21.707 22.995047 23 22.998047 L 23 7.5 C 23 6.673 23.673 6 24.5 6 C 25.327 6 26 6.673 26 7.5 L 26 23 L 27.5 23 C 28.017 23 28.518 23.064688 29 23.179688 L 29 7.5 C 29 5.019 26.981 3 24.5 3 z M 13.5 7 C 11.019 7 9 9.019 9 11.5 L 9 23.126953 C 9.929 22.681953 10.929 22.344156 12 22.160156 L 12 11.5 C 12 10.673 12.673 10 13.5 10 C 14.327 10 15 10.673 15 11.5 L 15 22.039062 C 16.181 22.118063 17.046078 22.306516 17.830078 22.478516 C 17.886078 22.490516 17.944 22.503625 18 22.515625 L 18 11.5 C 18 9.019 15.981 7 13.5 7 z M 35.5 9 C 33.019 9 31 11.019 31 13.5 L 31 24.039062 C 31.515 24.371062 31.984719 24.768516 32.386719 25.228516 C 32.933719 24.820516 33.478 24.412437 34 24.023438 L 34 13.5 C 34 12.673 34.673 12 35.5 12 C 36.327 12 37 12.673 37 13.5 L 37 21.785156 C 37.113 21.701156 37.214969 21.626359 37.292969 21.568359 C 38.164969 20.920359 39.081 20.499859 40 20.255859 L 40 13.5 C 40 11.019 37.981 9 35.5 9 z M 41.613281 22.019531 C 40.493082 22.029231 39.429184 22.473279 38.484375 23.175781 C 37.470126 23.929243 34.418425 26.208042 31.777344 28.179688 C 31.204622 26.351508 29.505924 25 27.5 25 L 23.107422 25 C 20.296203 25 18.985532 24.772226 17.859375 24.533203 C 16.733218 24.29418 15.646783 24 13.826172 24 C 9.9413941 24 7.0123317 26.492986 5.09375 28.791016 C 3.1751683 31.089045 2.1347656 33.384766 2.1347656 33.384766 A 1.5002787 1.5002787 0 1 0 4.8652344 34.628906 C 4.8652344 34.628906 5.7643161 32.669814 7.3964844 30.714844 C 9.0286527 28.759873 11.25995 27 13.826172 27 C 15.347561 27 16.006735 27.20582 17.236328 27.466797 C 18.465921 27.727774 20.123641 28 23.107422 28 L 27.5 28 C 28.346499 28 29 28.653501 29 29.5 C 29 29.969499 28.794195 30.374296 28.470703 30.646484 C 28.470416 30.646699 28.429688 30.677734 28.429688 30.677734 A 1.5001988 1.5001988 0 0 0 28.34375 30.75 C 28.105295 30.908613 27.816466 31 27.5 31 L 20.5 31 A 1.50015 1.50015 0 1 0 20.5 34 L 27.5 34 C 28.442153 34 29.318534 33.700976 30.044922 33.197266 A 1.5001988 1.5001988 0 0 0 30.224609 33.082031 C 30.224609 33.082031 38.775959 26.696426 40.273438 25.583984 A 1.50015 1.50015 0 0 0 40.273438 25.582031 C 40.837627 25.162534 41.309824 25.022381 41.640625 25.019531 C 41.971426 25.016631 42.218287 25.096901 42.560547 25.439453 C 43.150922 26.029324 43.147391 26.935102 42.572266 27.533203 C 37.217133 32.036197 33.848465 35.036886 31.623047 36.794922 C 29.369881 38.574924 28.424996 39 27.5 39 C 23.847885 39 19.80067 38 15.5 38 C 13 38 11.242781 39.343609 10.300781 40.599609 C 9.3587815 41.855609 9.0449219 43.136719 9.0449219 43.136719 A 1.50015 1.50015 0 1 0 11.955078 43.863281 C 11.955078 43.863281 12.141219 43.144391 12.699219 42.400391 C 13.257219 41.656391 14 41 15.5 41 C 19.30733 41 23.336115 42 27.5 42 C 29.402004 42 31.084837 41.044435 33.482422 39.150391 C 35.849764 37.280238 39.175413 34.30991 44.498047 29.833984 A 1.50015 1.50015 0 0 0 44.681641 29.681641 C 44.688541 29.674741 44.690436 29.665143 44.697266 29.658203 L 44.701172 29.662109 L 44.753906 29.607422 A 1.50015 1.50015 0 0 0 45.083984 29.074219 C 46.330485 27.321792 46.248887 24.884269 44.681641 23.318359 C 43.8529 22.488911 42.73348 22.009881 41.613281 22.019531 z"/></svg>