<?xml version="1.0"?><svg xmlns="http://www.w3.org/2000/svg" viewBox="0 0 24 24">    <path d="M 15.585938 2 L 11 6.5859375 L 11 7 L 11 14 L 18.414062 14 L 23 9.4140625 L 23 2 L 15.585938 2 z M 11.894531 2.0019531 C 7.8222913 2.0537134 4.4867969 5.1478125 4.0527344 9.1171875 L 1.5761719 13 L 4 14.021484 L 4 19 L 8 19 L 8 22 L 17 22 L 17 19.240234 C 17 17.753234 17.287594 16.782 17.683594 16 L 11 16 L 9 16 L 9 14 L 9 5.7578125 L 12.720703 2.0371094 C 12.719703 2.0341094 12.71975 2.03425 12.71875 2.03125 C 12.441375 2.007 12.166014 1.9985024 11.894531 2.0019531 z M 16.414062 4 L 19.585938 4 L 17.585938 6 L 14.414062 6 L 16.414062 4 z M 21 5.4140625 L 21 8.5859375 L 19 10.585938 L 19 7.4140625 L 21 5.4140625 z M 13 8 L 17 8 L 17 12 L 13 12 L 13 8 z"/></svg>