<svg xmlns="http://www.w3.org/2000/svg" viewBox="0 0 48 48"><path d="M 4.4277344 2 C 4.1837344 2 4.0790625 2.1627656 4.0390625 2.2597656 C 3.9990625 2.3567656 3.9578594 2.5437969 4.1308594 2.7167969 L 6.828125 5.4140625 C 7.200125 5.7860625 7.7161875 6 8.2421875 6 L 22.673828 6 C 22.863828 6 22.940703 5.8792969 22.970703 5.7792969 C 23.001703 5.6792969 23.004703 5.5366406 22.845703 5.4316406 L 18.201172 2.3359375 C 17.871172 2.1159375 17.486797 2 17.091797 2 L 4.4277344 2 z M 22.902344 3.0664062 L 24.328125 4.0175781 C 25.995125 5.1295781 26.991047 6.9863281 26.998047 8.9863281 C 26.999047 8.9913281 27 8.995 27 9 L 27 9.0097656 L 27 24 C 27 25.654 25.654 27 24 27 L 9.0097656 27 L 9 27 C 8.995 27 8.9913281 26.998047 8.9863281 26.998047 C 6.9853281 26.990047 5.1285781 25.994125 4.0175781 24.328125 L 3.0429688 22.865234 C 3.2669688 27.822234 5.3742656 32.5495 8.9472656 35.9375 C 10.268266 37.1905 11 38.80075 11 40.46875 L 11 43.5 C 11 44.328 11.668094 45 12.496094 45 L 29.496094 45 C 30.324094 45 30.996094 44.328 30.996094 43.5 L 30.996094 42.941406 C 30.996094 42.725406 31.135844 42.535797 31.339844 42.466797 L 36.919922 40.605469 C 38.760922 39.992469 39.996094 38.278891 39.996094 36.337891 L 39.996094 31.162109 L 42.988281 30.115234 C 43.906281 29.793234 44.615766 29.044375 44.884766 28.109375 C 45.153766 27.174375 44.948797 26.164297 44.341797 25.404297 L 39.828125 19.763672 C 38.790125 10.657672 31.696344 3.7394062 22.902344 3.0664062 z M 2.421875 3.9902344 C 2.354875 3.9902344 2.2949063 4.0093906 2.2539062 4.0253906 C 2.1589062 4.0653906 2 4.1662969 2 4.4042969 L 2 17.119141 C 2 17.497141 2.1103125 17.863687 2.3203125 18.179688 L 5.4316406 22.845703 C 5.5386406 23.004703 5.6772969 23.000703 5.7792969 22.970703 C 5.8802969 22.939703 6 22.862828 6 22.673828 L 6 8.2050781 C 6 7.6950781 5.8004531 7.2155156 5.4394531 6.8535156 L 2.6992188 4.1132812 C 2.6042187 4.0192812 2.506875 3.9902344 2.421875 3.9902344 z M 9 8 C 8.448 8 8 8.448 8 9 L 8 24 C 8 24.552 8.448 25 9 25 L 24 25 C 24.552 25 25 24.552 25 24 L 25 9 C 25 8.448 24.552 8 24 8 L 9 8 z"/></svg>