<?xml version="1.0"?><svg xmlns="http://www.w3.org/2000/svg" viewBox="0 0 80 80">    <path d="M 49 7 A 1.0001 1.0001 0 0 0 48.300781 7.2851562 L 38.300781 17.078125 A 1.0001 1.0001 0 0 0 38 17.792969 L 38 39 A 1.0001 1.0001 0 0 0 39 40 L 59 40 A 1.0001 1.0001 0 0 0 59.707031 39.707031 L 69.707031 29.707031 A 1.0001 1.0001 0 0 0 70 29 L 70 8 A 1.0001 1.0001 0 0 0 69 7 L 49 7 z M 40.972656 8.0136719 C 24.301021 8.4836544 15.19123 20.523487 15.029297 32.566406 L 8.3945312 43.833984 C 7.5669187 45.240774 8.1042505 47.089615 9.5585938 47.832031 L 14.998047 50.611328 L 14.998047 58 C 14.998047 62.958516 19.039531 67 23.998047 67 L 28.998047 67 L 28.998047 71 L 28.998047 73 L 30.998047 73 L 30.998047 67 A 1 1 0 0 0 31.998047 66 A 1 1 0 0 0 30.998047 65 L 23.998047 65 C 20.120563 65 16.998047 61.877484 16.998047 58 L 16.998047 49.388672 L 10.46875 46.050781 C 10.015093 45.819197 9.8607526 45.28882 10.119141 44.849609 L 16.998047 33.164062 L 16.998047 32.890625 C 16.998047 21.729249 25.143269 10.461453 41.027344 10.013672 A 1.0003739 1.0003739 0 0 0 40.972656 8.0136719 z M 49.408203 9 L 68 9 L 68 28.585938 L 58.585938 38 L 40 38 L 40 18.212891 L 49.408203 9 z M 65 11 A 1 1 0 0 0 64 12 A 1 1 0 0 0 65 13 A 1 1 0 0 0 66 12 A 1 1 0 0 0 65 11 z M 62 14 A 1 1 0 0 0 61 15 A 1 1 0 0 0 62 16 A 1 1 0 0 0 63 15 A 1 1 0 0 0 62 14 z M 43 17 A 1 1 0 0 0 42 18 A 1 1 0 0 0 43 19 A 1 1 0 0 0 44 18 A 1 1 0 0 0 43 17 z M 47 17 A 1 1 0 0 0 46 18 A 1 1 0 0 0 47 19 A 1 1 0 0 0 48 18 A 1 1 0 0 0 47 17 z M 51 17 A 1 1 0 0 0 50 18 A 1 1 0 0 0 51 19 A 1 1 0 0 0 52 18 A 1 1 0 0 0 51 17 z M 55 17 A 1 1 0 0 0 54 18 A 1 1 0 0 0 55 19 A 1 1 0 0 0 56 18 A 1 1 0 0 0 55 17 z M 59 17 A 1 1 0 0 0 58 18 A 1 1 0 0 0 59 19 A 1 1 0 0 0 60 18 A 1 1 0 0 0 59 17 z M 59 21 A 1 1 0 0 0 58 22 A 1 1 0 0 0 59 23 A 1 1 0 0 0 60 22 A 1 1 0 0 0 59 21 z M 59 25 A 1 1 0 0 0 58 26 A 1 1 0 0 0 59 27 A 1 1 0 0 0 60 26 A 1 1 0 0 0 59 25 z M 59 29 A 1 1 0 0 0 58 30 A 1 1 0 0 0 59 31 A 1 1 0 0 0 60 30 A 1 1 0 0 0 59 29 z M 59 33 A 1 1 0 0 0 58 34 A 1 1 0 0 0 59 35 A 1 1 0 0 0 60 34 A 1 1 0 0 0 59 33 z M 68.951172 34.986328 A 1.0001 1.0001 0 0 0 68.001953 35.933594 L 67.927734 37.068359 C 67.421125 43.913606 64.352765 48.270826 61.261719 52.476562 C 58.170673 56.682299 54.998047 60.774453 54.998047 66.734375 L 54.998047 71 L 54.998047 73 L 56.998047 73 L 56.998047 71 L 56.998047 66.734375 C 56.998047 61.480297 59.764343 57.889919 62.873047 53.660156 C 65.981751 49.430393 69.375485 44.597597 69.921875 37.214844 L 69.921875 37.210938 L 69.998047 36.066406 A 1.0001 1.0001 0 0 0 68.951172 34.986328 z M 41.998047 61 A 1 1 0 0 0 40.998047 62 A 1 1 0 0 0 41.998047 63 A 1 1 0 0 0 42.998047 62 A 1 1 0 0 0 41.998047 61 z M 38.998047 64 A 1 1 0 0 0 37.998047 65 A 1 1 0 0 0 38.998047 66 A 1 1 0 0 0 39.998047 65 A 1 1 0 0 0 38.998047 64 z M 34.998047 65 A 1 1 0 0 0 33.998047 66 A 1 1 0 0 0 34.998047 67 A 1 1 0 0 0 35.998047 66 A 1 1 0 0 0 34.998047 65 z"/></svg>