<svg xmlns="http://www.w3.org/2000/svg" viewBox="0 0 48 48"><circle cx="22.987" cy="5" r="3" fill="#ffe0b2"/><circle cx="23.493" cy="40.5" r="5.5" fill="#ff754c"/><polygon fill="#4db6ac" points="27.992,19.996 27.148,13.641 28.998,13.95 28.998,10.907 17.006,8.909 17.01,11.962 19.014,12.293 20.087,20 27.995,20"/><path fill="#546e7a" d="M27.995,20h-7.908l1.94,13.644c0.072,0.777,0.726,1.361,1.492,1.361c0.046,0,0.093-0.002,0.14-0.007 c0.825-0.076,1.432-0.807,1.355-1.632l-0.957-10.375h1.927l8.524,8.613c0.287,0.26,0.647,0.388,1.006,0.388 c0.409,0,0.817-0.166,1.113-0.493c0.556-0.615,0.508-1.563-0.106-2.119L27.995,20z"/><path fill="#ffe0b2" d="M17.002,8.907L9.756,7.653C8.937,7.52,8.166,8.068,8.03,8.886s0.416,1.59,1.232,1.727l7.74,1.343 L17.002,8.907z"/><path fill="#ffe0b2" d="M37.747,12.369l-8.745-1.459v3.041l8.251,1.377c0.084,0.014,0.167,0.021,0.249,0.021 c0.72,0,1.355-0.52,1.478-1.253C39.116,13.278,38.564,12.505,37.747,12.369z"/></svg>