<svg xmlns="http://www.w3.org/2000/svg" viewBox="0 0 100 100"><circle cx="13" cy="29" r="2" fill="#78a0cf"/><circle cx="77" cy="13" r="1" fill="#f1bc19"/><circle cx="50" cy="50" r="37" fill="#cee1f4"/><circle cx="83" cy="15" r="4" fill="#f1bc19"/><circle cx="87" cy="24" r="2" fill="#78a0cf"/><circle cx="81" cy="76" r="2" fill="#fbcd59"/><circle cx="15" cy="63" r="4" fill="#fbcd59"/><circle cx="25" cy="87" r="2" fill="#78a0cf"/><circle cx="18.5" cy="53.5" r="2.5" fill="#fff"/><circle cx="21" cy="67" r="1" fill="#f1bc19"/><circle cx="80" cy="34" r="1" fill="#fff"/><path fill="#472b29" d="M34,73.5h-1V48.747c0-11.944,8.376-12.738,8.461-12.745l0.079,0.997 C41.232,37.024,34,37.757,34,48.747V73.5z"/><rect width="1" height="37" x="41" y="36.5" fill="#472b29"/><path fill="#472b29" d="M62,54.4v9.2h-8v-9.2H62 M62.4,53h-9.8v12h9.8c0.552,0,1-0.413,1-0.923V53.923 C63.4,53.413,62.952,53,62.4,53L62.4,53z"/><rect width="1" height="10.616" x="56" y="53.461" fill="#472b29"/><rect width="1" height="10.616" x="59" y="53.461" fill="#472b29"/><path fill="#472b29" d="M38,73.5h-1V48.747c0-11.911,4.242-12.712,4.423-12.741l0.154,0.988C41.553,37,38,37.849,38,48.747 V73.5z"/><path fill="#472b29" d="M50,73.5h-1V48.747c0-10.989-7.232-11.722-7.54-11.748l0.079-0.997 C41.624,36.008,50,36.802,50,48.747V73.5z"/><path fill="#472b29" d="M46,73.5h-1V48.747C45,37.849,41.447,37,41.412,36.992l0.165-0.986 C41.758,36.034,46,36.835,46,48.747V73.5z"/><rect width="23.5" height="4.5" x="29.5" y="69" fill="#9f8066"/><rect width="23.5" height="1" x="29.5" y="48" fill="#472b29"/><rect width="23.5" height="1" x="29.5" y="69" fill="#472b29"/><path fill="#472b29" d="M41.5,37.4c6.121,0,11.1,4.979,11.1,11.1v24.1H30.4V48.5C30.4,42.379,35.379,37.4,41.5,37.4 M41.5,36L41.5,36C34.596,36,29,41.596,29,48.5V73c0,0.552,0.448,1,1,1h23c0.552,0,1-0.448,1-1V48.5C54,41.596,48.404,36,41.5,36 L41.5,36z"/><path fill="#fbcd59" d="M74.3,31.023c-1.035,0-2.069-1.223-3.104-1.223c-1.449,0-2.069,0.986-2.069,2.247 c0,2.047,0,2.047-1.035,2.047c-2.49,0-5.173-4.393-5.173-4.393s-2.758,3.967-0.117,6.745l-0.096,0.038c0,0-0.325,1.726-3.925,1.705 c6.673,3.594,11.574,1.524,12.442-0.081c0.492-0.91,1.106-2.799,1.007-4.012C72.08,32.239,74.3,31.023,74.3,31.023z"/><path fill="#ef9922" d="M62.844,29.906c0,0-2.766,3.789,0.195,6.094c2.961,2.305,5.439,1.507,6.2-0.246 C68.761,34.246,69,33.779,67,33.89C65,32.11,64.688,31.813,62.844,29.906z"/><path fill="#472b29" d="M66.207,40.976c-2.693,0-5.688-0.927-7.857-2.183c-0.274-0.159-0.408-0.483-0.325-0.79 c0.083-0.305,0.36-0.517,0.676-0.517c0.02-0.002,0.045,0,0.066,0c2.063,0,3.212-0.601,3.759-1.015 c-0.719-0.659-1.183-1.438-1.383-2.327c-0.551-2.441,1.143-4.764,1.215-4.861c0.138-0.188,0.361-0.3,0.594-0.283 c0.232,0.01,0.444,0.136,0.566,0.334c0.645,1.053,2.868,4.058,4.575,4.058c0.1,0,0.214,0,0.304-0.003 c0.03-0.257,0.03-0.769,0.03-1.343c0-1.818,1.062-2.947,2.77-2.947c0.709,0,1.346,0.377,1.908,0.709 c0.428,0.253,0.87,0.514,1.195,0.514c0.319,0,0.597,0.216,0.677,0.525c0.08,0.309-0.06,0.633-0.339,0.788 c-0.019,0.01-1.821,1.026-1.71,2.4c0.123,1.506-0.294,3.169-1.115,4.447C70.662,40.276,68.548,40.976,66.207,40.976z M61.195,38.595c3.706,1.407,7.977,1.411,9.439-0.867c0.66-1.03,0.996-2.367,0.898-3.578c-0.103-1.254,0.61-2.242,1.29-2.887 c-0.148-0.082-0.292-0.167-0.432-0.249c-0.428-0.253-0.87-0.514-1.195-0.514c-0.339,0-1.369,0-1.369,1.547 c0,0.795,0,1.393-0.109,1.824c0.622,1.799-0.104,2.788-0.6,3.221c-1.354,1.182-3.993,0.989-5.213,0.338 c-0.072-0.039-0.144-0.078-0.213-0.117C63.273,37.696,62.482,38.256,61.195,38.595z M62.964,31.021 c-0.343,0.725-0.69,1.788-0.454,2.822c0.216,0.949,0.907,1.74,2.054,2.352c0.848,0.453,2.812,0.561,3.634-0.158 c0.131-0.114,0.486-0.425,0.321-1.262c-0.129,0.012-0.271,0.019-0.426,0.019C65.998,34.793,63.976,32.42,62.964,31.021z"/></svg>