<svg xmlns="http://www.w3.org/2000/svg" viewBox="0 0 24 24"><path d="M1,19.93v-5.801c0-0.682,0.469-1.275,1.133-1.433l2.305-0.545	c1.178-0.279,2.415-0.17,3.527,0.309l4.379,1.888c1.389,0.599,2.015,2.223,1.386,3.599l0,0l0.373,0.489l4.653-1.661	c0.883-0.328,1.862,0.141,2.16,1.034l0,0c0.262,0.786-0.094,1.645-0.835,2.016l-4.623,2.328c-0.921,0.46-1.987,0.536-2.964,0.211	l-6.14-2.047c-0.875-0.292-1.82-0.294-2.697-0.008L2.185,20.79C1.601,20.981,1,20.545,1,19.93z" opacity=".35"/><path d="M19,16.712V11c0-1.105-0.895-2-2-2s-2,0.895-2,2v7.116l3.756-1.341C18.837,16.745,18.918,16.729,19,16.712z"/><path d="M13,14.767V4c0-1.105-0.895-2-2-2S9,2.895,9,4v8.906l3.344,1.442C12.591,14.454,12.804,14.603,13,14.767z"/><path d="M7,12.152V8c0-1.105-0.895-2-2-2S3,6.895,3,8v4.491l1.438-0.34C5.285,11.95,6.161,11.958,7,12.152z"/></svg>