<?xml version="1.0"?><svg xmlns="http://www.w3.org/2000/svg" viewBox="0 0 64 64">    <path d="M 17.134766 -0.001953125 C 16.999766 -0.001953125 16.865234 0.025078125 16.740234 0.080078125 L 2.7402344 6.0800781 C 2.3702344 6.2400781 2.1308594 6.6 2.1308594 7 L 2.1308594 25 C 2.1308594 25.4 2.3702344 25.759922 2.7402344 25.919922 L 12.759766 30.210938 C 12.639766 30.500937 12.550469 30.819922 12.480469 31.169922 C 12.180469 32.649922 12.279531 34.459531 12.769531 36.269531 C 13.619531 39.459531 15.410781 41.800547 17.300781 42.310547 C 20.420781 52.150547 28.34 61.910156 37.75 61.910156 C 47.16 61.910156 55.079219 52.150547 58.199219 42.310547 C 60.089219 41.800547 61.880234 39.459531 62.740234 36.269531 C 63.220234 34.459531 63.319531 32.649922 63.019531 31.169922 C 62.669531 29.449922 61.809844 28.320234 60.589844 27.990234 C 60.211844 27.894234 59.671484 27.855453 59.021484 28.064453 C 58.967484 25.703453 58.633 23.692469 58 21.980469 C 57.75 21.310469 57.830312 21.070312 57.820312 21.070312 C 58.110312 20.840312 59.570703 21.039141 60.970703 21.619141 C 61.310703 21.759141 61.710234 21.700938 61.990234 21.460938 C 62.280234 21.220938 62.410078 20.850469 62.330078 20.480469 C 59.800078 8.9104687 51.209375 2 39.359375 2 L 37.75 2 C 34.74 2 30.610078 2.820625 27.580078 4.390625 L 17.529297 0.080078125 C 17.404297 0.025078125 17.269766 -0.001953125 17.134766 -0.001953125 z M 17.130859 2.0898438 L 28.527344 6.9726562 L 17 11.912109 L 5.6035156 7.0273438 L 17.130859 2.0898438 z M 37.75 4 L 39.359375 4 C 49.769375 4 57.179453 9.5094531 59.939453 19.189453 C 58.739453 18.909453 57.289453 18.809141 56.439453 19.619141 C 55.739453 20.299141 55.630859 21.319922 56.130859 22.669922 C 56.910859 24.789922 57.180937 27.469375 56.960938 30.859375 C 56.920938 31.419375 57.340625 31.889688 57.890625 31.929688 L 57.960938 31.929688 C 58.480938 31.929688 58.920937 31.520234 58.960938 30.990234 C 58.975938 30.743234 58.981188 30.506625 58.992188 30.265625 C 59.048187 30.242625 59.108156 30.233219 59.160156 30.199219 C 59.420156 30.029219 59.790313 29.849922 60.070312 29.919922 C 60.500312 30.039922 60.870547 30.660312 61.060547 31.570312 C 61.300547 32.730312 61.210547 34.26 60.810547 35.75 C 60.400547 37.27 59.780391 38.440703 59.150391 39.220703 C 58.520391 40.010703 57.879688 40.419922 57.429688 40.419922 C 56.989688 40.419922 56.600703 40.710859 56.470703 41.130859 C 53.700703 50.470859 46.38 59.910156 37.75 59.910156 C 29.12 59.910156 21.799297 50.470859 19.029297 41.130859 C 18.899297 40.710859 18.510313 40.419922 18.070312 40.419922 C 17.180312 40.419922 15.509219 38.79 14.699219 35.75 C 14.299219 34.26 14.199453 32.730312 14.439453 31.570312 C 14.479453 31.360312 14.539844 31.17 14.589844 31 L 16.740234 31.919922 C 16.870234 31.969922 17.000859 32 17.130859 32 C 17.270859 32 17.399297 31.969922 17.529297 31.919922 L 17.539062 31.910156 L 17.580078 31.900391 L 17.880859 31.769531 L 31.529297 25.919922 C 31.899297 25.759922 32.130859 25.4 32.130859 25 L 32.130859 19.810547 C 36.100859 21.440547 40.230938 22.259766 44.460938 22.259766 C 45.020938 22.259766 45.460938 21.809766 45.460938 21.259766 C 45.460938 20.709766 45.020938 20.259766 44.460938 20.259766 C 40.220937 20.259766 36.080859 19.380859 32.130859 17.630859 L 32.130859 7 C 32.130859 6.6 31.899297 6.2400781 31.529297 6.0800781 L 30.080078 5.4609375 C 32.570078 4.5009375 35.54 4 37.75 4 z M 37.554688 6.0039062 C 37.003687 6.0479062 36.592719 6.5290781 36.636719 7.0800781 L 36.792969 9.0136719 C 36.834969 9.5366719 37.270109 9.9335938 37.787109 9.9335938 C 37.814109 9.9335938 37.842141 9.9316875 37.869141 9.9296875 C 38.420141 9.8856875 38.829156 9.4045156 38.785156 8.8535156 L 38.630859 6.9199219 C 38.586859 6.3689219 38.097687 5.9639062 37.554688 6.0039062 z M 43.167969 6.2714844 C 42.620969 6.1854844 42.108531 6.5536563 42.019531 7.0976562 L 41.707031 9.0078125 C 41.618031 9.5528125 41.98625 10.065297 42.53125 10.154297 C 42.58625 10.163297 42.641312 10.167969 42.695312 10.167969 C 43.176313 10.167969 43.601641 9.818125 43.681641 9.328125 L 43.992188 7.4199219 C 44.081188 6.8759219 43.712969 6.3614844 43.167969 6.2714844 z M 48.140625 8.0136719 C 47.751 8.0105781 47.378344 8.2369375 47.214844 8.6171875 L 46.457031 10.375 C 46.238031 10.884 46.471516 11.471453 46.978516 11.689453 C 47.107516 11.745453 47.242 11.771484 47.375 11.771484 C 47.762 11.771484 48.130969 11.545969 48.292969 11.167969 L 49.050781 9.4101562 C 49.269781 8.9021563 49.036297 8.3137031 48.529297 8.0957031 C 48.402797 8.0409531 48.2705 8.0147031 48.140625 8.0136719 z M 30.130859 8.4609375 L 30.130859 24.339844 L 18 29.535156 L 18 13.658203 L 30.130859 8.4609375 z M 4.1308594 8.5722656 L 16 13.658203 L 16 29.423828 L 4.1308594 24.339844 L 4.1308594 8.5722656 z M 52.541016 11.15625 C 52.286891 11.18825 52.045953 11.317156 51.876953 11.535156 L 50.724609 13.019531 C 50.386609 13.456531 50.464391 14.084828 50.900391 14.423828 C 51.082391 14.565828 51.299672 14.632812 51.513672 14.632812 C 51.811672 14.632812 52.107687 14.500094 52.304688 14.246094 L 53.455078 12.761719 C 53.793078 12.324719 53.715297 11.696422 53.279297 11.357422 C 53.061797 11.188422 52.795141 11.12425 52.541016 11.15625 z M 48.759766 20.261719 C 48.207766 20.261719 47.759766 20.708719 47.759766 21.261719 C 47.759766 21.814719 48.207766 22.261719 48.759766 22.261719 L 51.982422 22.261719 C 52.534422 22.261719 52.982422 21.814719 52.982422 21.261719 C 52.982422 20.708719 52.534422 20.261719 51.982422 20.261719 L 48.759766 20.261719 z M 29 30 A 2 2 0 0 0 27 32 A 2 2 0 0 0 29 34 A 2 2 0 0 0 31 32 A 2 2 0 0 0 29 30 z M 48 30 A 2 2 0 0 0 46 32 A 2 2 0 0 0 48 34 A 2 2 0 0 0 50 32 A 2 2 0 0 0 48 30 z"/></svg>