<svg xmlns="http://www.w3.org/2000/svg" width="48" height="48" viewBox="0 0 48 48"><path fill="#c5cae9" d="M40,45H8V3h32v10V45z"/><path fill="#3f51b5" d="M27.379,13.871h-4.03v3.258H28V19h-7V7h7v1.871h-4.651V12h4.03V13.871z"/><path fill="#3f51b5" d="M20.21,24.507h-2.036V27H17v-6h3.568v0.935h-2.394v1.636h2.036V24.507z"/><path fill="#3f51b5" d="M30.174,24.845V27H29v-6h2.085c0.599,0,1.071,0.177,1.418,0.531C32.849,21.885,33,22.349,33,22.922	c0,0.576-0.152,1.041-0.5,1.394c-0.347,0.353-0.819,0.529-1.415,0.529H30.174z M30.174,23.91h0.911c0.25,0,0.441-0.093,0.573-0.277	c0.132-0.184,0.198-0.418,0.198-0.702c0-0.286-0.066-0.524-0.196-0.712c-0.131-0.189-0.322-0.283-0.575-0.283h-0.911V23.91z"/><path fill="#3f51b5" d="M17.505,31.662h-0.876v3.282h-0.758v-3.282H15v-0.606h2.505V31.662z"/><path fill="#3f51b5" d="M25.284,33.547c0,0.456-0.124,0.812-0.371,1.068C24.666,34.872,24.336,35,23.926,35	s-0.74-0.128-0.985-0.385c-0.245-0.256-0.368-0.612-0.368-1.068v-1.089c0-0.454,0.123-0.81,0.368-1.07	C23.186,31.13,23.514,31,23.923,31c0.41,0,0.739,0.13,0.988,0.388c0.249,0.259,0.374,0.616,0.374,1.07V33.547z M24.529,32.45	c0-0.279-0.052-0.489-0.155-0.631c-0.104-0.142-0.254-0.213-0.451-0.213c-0.199,0-0.349,0.071-0.448,0.212	c-0.1,0.141-0.15,0.352-0.15,0.632v1.097c0,0.282,0.051,0.494,0.153,0.635c0.101,0.141,0.251,0.212,0.448,0.212	c0.196,0,0.345-0.07,0.449-0.212c0.103-0.141,0.155-0.352,0.155-0.635V32.45z"/><path fill="#3f51b5" d="M31.508,34.338H33v0.606h-2.347v-0.382l1.458-2.9h-1.474v-0.606h2.339v0.368L31.508,34.338z"/><path fill="#3f51b5" d="M15.904,40.532H17V41h-1.684v-3h0.587V40.532z"/><path fill="#3f51b5" d="M20.587,39.923V41H20v-3h1.043c0.299,0,0.536,0.088,0.709,0.265c0.173,0.177,0.26,0.409,0.26,0.696	c0,0.287-0.087,0.52-0.261,0.696c-0.174,0.176-0.41,0.265-0.708,0.265H20.587z M20.587,39.454h0.456c0.125,0,0.22-0.045,0.286-0.138	s0.099-0.209,0.099-0.351c0-0.144-0.033-0.262-0.098-0.357c-0.065-0.094-0.161-0.141-0.287-0.141h-0.456V39.454z"/><path fill="#3f51b5" d="M27.595,39.684h-1.008v0.849h1.185V41H26v-3h1.768v0.468h-1.181v0.748h1.008V39.684z"/><path fill="#3f51b5" d="M31.03,41v-3h0.907c0.308,0,0.562,0.116,0.762,0.349C32.9,38.581,33,38.881,33,39.249v0.504	c0,0.367-0.1,0.666-0.301,0.899C32.499,40.884,32.244,41,31.937,41H31.03z M31.617,38.468v2.065h0.286	c0.163,0,0.29-0.071,0.378-0.213c0.089-0.143,0.133-0.332,0.133-0.566v-0.51c0-0.233-0.044-0.421-0.133-0.563	c-0.089-0.142-0.215-0.212-0.378-0.212H31.617z"/></svg>