<svg xmlns="http://www.w3.org/2000/svg" viewBox="0 0 64 64"><path fill="#faefde" d="M16.92,40.326C16.919,40.326,16.919,40.326,16.92,40.326c-0.501,0-2.113-1.33-2.955-4.473 c-0.855-3.19-0.087-5.275,0.307-5.382c0.003,0,0.728-1.472,3.098-1.146c0.883,0.121,0.139-1.776,0.29-2.634 c0.128-0.729,0.023-1.55-0.135-2.795c-0.244-1.914-0.613-4.807-0.215-8.786c0.545-5.447,3.737-8.699,8.569-8.699 c0.369,0,0.727-0.119,1.023-0.341C29.239,4.32,33.919,3,37.789,3h1.706c10.354,0,17.833,5.293,20.898,14.642 c-1.177-0.133-0.784,0.694-1.621,1.499c-0.652,0.626-2.88,1.129-2.104,3.236c1.054,2.86,1.428,4.549,1.54,6.949 c0.029,0.611,3.061-0.466,3.092-0.469c0.412,0.142,1.16,3.832,0.313,6.996c-0.842,3.144-2.454,4.473-2.954,4.473 c-0.698-0.002-1.422,0.496-1.637,1.22C54.15,51.214,46.622,61,37.789,61s-16.361-9.786-19.234-19.454 C18.34,40.823,17.675,40.326,16.92,40.326z"/><path fill="#efd8be" d="M13.965 35.853c-.855-3.19-.087-5.275.307-5.382.003 0 .193-1.515 2.563-1.189.883.121 1.456 8.634 1.279 12.027C18.074 42.063 14.807 38.996 13.965 35.853zM61.477 35.853c.855-3.19.087-5.275-.307-5.382-.003 0-.193-1.515-2.563-1.189-.883.121-1.456 8.634-1.279 12.027C57.368 42.063 60.635 38.996 61.477 35.853z"/><path fill="#cda1a7" d="M16,24c0,0,7,1,10-7c5.014,1.614,7.604,5.614,31,4c2.319-0.16,2.57-2.492,3.789-2.358 C57.616,9.293,49.721,3,39,3h-2c-4.007,0-7.58,1.249-10,3c-0.306,0.222-1.629-0.093-2,0c-4,1-7.182,4.889-8,10 c-0.632,3.95-0.848,6.983-0.596,8.897C16.409,24.928,15.996,23.969,16,24z"/><path fill="#dbb2ba" d="M16.404 24.897c-.035-.266-.059-.56-.076-.869C16.12 24.016 16 24 16 24 15.996 23.969 16.409 24.928 16.404 24.897zM39 3h-2c-4.007 0-7.58 1.249-10 3-.046.033-.039.169.005.376.518 2.418 3.165 3.754 5.461 2.835C34.07 8.568 35.919 8 37.44 8h1.744c8.425 0 14.838 5.118 18.051 12.969 2.097-.298 2.714-1.222 3.89-1.094C57.952 10.526 49.721 3 39 3z"/><path fill="#efd8be" d="M52.975,49c-2.728,0-5.285,1.082-7.212,2.866c-2.299,2.128-5.035,3.517-7.974,3.517 c-2.939,0-5.674-1.39-7.974-3.517C27.888,50.082,25.332,49,22.603,49h-1.425c3.72,6.585,9.773,12,16.611,12S50.68,55.585,54.4,49 H52.975z"/><path fill="#f283a5" d="M3.133 7L17 13 17.133 31 3.133 25z"/><path fill="#5dbc9d" d="M31.133 7L17.267 13 17.133 31 31.133 25z"/><path fill="#85cbf8" d="M4 7L17 1 30 7 17 13z"/><g><path fill="#8d6c9f" d="M63.02,31.17c-0.35-1.72-1.21-2.85-2.43-3.18c-0.378-0.096-0.919-0.134-1.569,0.075 c-0.054-2.361-0.388-4.373-1.021-6.085c-0.25-0.67-0.17-0.91-0.18-0.91c0.29-0.23,1.75-0.03,3.15,0.55 c0.34,0.14,0.74,0.08,1.02-0.16c0.29-0.24,0.42-0.61,0.34-0.98C59.8,8.91,51.21,2,39.36,2h-1.61c-3.01,0-7.14,0.82-10.17,2.39 L17.53,0.08c-0.25-0.11-0.54-0.11-0.79,0l-14,6C2.37,6.24,2.13,6.6,2.13,7v18c0,0.4,0.24,0.76,0.61,0.92l10.02,4.29 c-0.12,0.29-0.21,0.61-0.28,0.96c-0.3,1.48-0.2,3.29,0.29,5.1c0.85,3.19,2.64,5.53,4.53,6.04c3.12,9.84,11.04,19.6,20.45,19.6 s17.33-9.76,20.45-19.6c1.89-0.51,3.68-2.85,4.54-6.04C63.22,34.46,63.32,32.65,63.02,31.17z M17.13,2.09l11.398,4.882L17,11.912 L5.604,7.028L17.13,2.09z M18,29.536V13.659l12.13-5.198V24.34L18,29.536z M4.13,24.34V8.572L16,13.659v15.765L4.13,24.34z M60.81,35.75c-0.41,1.52-1.03,2.69-1.66,3.47c-0.63,0.79-1.27,1.2-1.72,1.2c-0.44,0-0.83,0.29-0.96,0.71 c-2.77,9.34-10.09,18.78-18.72,18.78S21.8,50.47,19.03,41.13c-0.13-0.42-0.52-0.71-0.96-0.71c-0.89,0-2.56-1.63-3.37-4.67 c-0.4-1.49-0.5-3.02-0.26-4.18c0.04-0.21,0.1-0.4,0.15-0.57l2.15,0.92C16.87,31.97,17,32,17.13,32c0.14,0,0.27-0.03,0.4-0.08 l0.01-0.01l0.04-0.01l0.3-0.13l13.65-5.85c0.37-0.16,0.6-0.52,0.6-0.92v-5.19c3.97,1.63,8.1,2.45,12.33,2.45c0.56,0,1-0.45,1-1 c0-0.55-0.44-1-1-1c-4.24,0-8.38-0.88-12.33-2.63V7c0-0.4-0.23-0.76-0.6-0.92l-1.45-0.62C32.57,4.5,35.54,4,37.75,4h1.61 c10.41,0,17.82,5.51,20.58,15.19c-1.2-0.28-2.65-0.38-3.5,0.43c-0.7,0.68-0.81,1.7-0.31,3.05c0.78,2.12,1.05,4.8,0.83,8.19 c-0.04,0.56,0.38,1.03,0.93,1.07h0.07c0.52,0,0.96-0.41,1-0.94c0.015-0.247,0.022-0.483,0.033-0.724 c0.056-0.023,0.115-0.032,0.167-0.066c0.26-0.17,0.63-0.35,0.91-0.28c0.43,0.12,0.8,0.74,0.99,1.65 C61.3,32.73,61.21,34.26,60.81,35.75z"/><path fill="#8d6c9f" d="M51.983 20.262H48.76c-.552 0-1 .447-1 1s.448 1 1 1h3.223c.552 0 1-.447 1-1S52.535 20.262 51.983 20.262zM29 30A2 2 0 1 0 29 34 2 2 0 1 0 29 30zM48 30A2 2 0 1 0 48 34 2 2 0 1 0 48 30zM37.554 6.003c-.551.044-.961.526-.917 1.077l.155 1.933c.042.523.479.92.996.92.027 0 .054-.001.081-.003.551-.044.961-.526.917-1.077L38.63 6.92C38.586 6.369 38.097 5.963 37.554 6.003zM51.876 11.535l-1.152 1.485c-.338.437-.259 1.064.177 1.403.182.142.398.21.612.21.298 0 .594-.133.791-.387l1.152-1.485c.338-.437.259-1.064-.177-1.403C52.844 11.02 52.214 11.099 51.876 11.535zM46.979 11.69c.129.056.263.082.396.082.387 0 .756-.226.918-.604l.758-1.758c.219-.508-.015-1.096-.522-1.314-.506-.219-1.096.014-1.314.521l-.758 1.758C46.238 10.884 46.472 11.472 46.979 11.69zM43.167 6.271c-.547-.086-1.059.282-1.148.826l-.312 1.91c-.089.545.28 1.059.825 1.148.055.009.109.013.163.013.481 0 .906-.349.986-.839l.312-1.91C44.082 6.875 43.712 6.361 43.167 6.271z"/></g></svg>