<svg xmlns="http://www.w3.org/2000/svg" viewBox="0 0 24 24"><path d="M 11.984375 2 C 7.864375 2 4.4751094 5.1141875 4.0371094 9.1171875 L 2.1445312 12.087891 C 1.8395313 12.564891 2.0375938 13.200922 2.5585938 13.419922 L 3.984375 14.021484 L 3.984375 17 C 3.984375 18.105 4.879375 19 5.984375 19 L 7.984375 19 L 7.984375 22 L 16.984375 22 L 16.984375 19.240234 C 16.984375 17.753234 17.271969 16.782 17.667969 16 L 15.501953 16 C 15.198953 16.846 14.984375 17.880234 14.984375 19.240234 L 14.984375 20 L 9.984375 20 L 9.984375 17 L 5.984375 17 L 5.984375 12.693359 L 4.7617188 12.177734 L 4.5214844 12.076172 L 5.7226562 10.193359 L 5.9726562 9.8007812 L 6.0234375 9.3378906 C 6.3044375 6.7808906 8.1673125 4.7705 10.570312 4.1875 L 12.720703 2.0371094 C 12.477703 2.0151094 12.232375 2 11.984375 2 z M 15.585938 2 L 11 6.5859375 L 11 7 L 11 14 L 18.414062 14 L 23 9.4140625 L 23 2 L 15.585938 2 z M 16.414062 4 L 19.585938 4 L 17.585938 6 L 14.414062 6 L 16.414062 4 z M 21 5.4140625 L 21 8.5859375 L 19 10.585938 L 19 7.4140625 L 21 5.4140625 z M 13 8 L 17 8 L 17 12 L 13 12 L 13 8 z"/></svg>